<svg width="30" height="36" viewBox="0 0 30 36" fill="none" xmlns="http://www.w3.org/2000/svg">
<path d="M15 3.21875C22.9688 3.21875 29.5312 9.78125 29.5312 17.75C29.5312 25.7773 22.9688 32.2812 15 32.2812C6.97266 32.2812 0.46875 25.7773 0.46875 17.75C0.46875 9.78125 6.97266 3.21875 15 3.21875ZM15 28.5312C20.918 28.5312 25.7812 23.7266 25.7812 17.75C25.7812 11.832 20.918 6.96875 15 6.96875C9.02344 6.96875 4.21875 11.832 4.21875 17.75C4.21875 23.7266 9.02344 28.5312 15 28.5312ZM15 10.25C19.1016 10.25 22.5 13.6484 22.5 17.75C22.5 21.9102 19.1016 25.25 15 25.25C10.8398 25.25 7.5 21.9102 7.5 17.75C7.5 13.6484 10.8398 10.25 15 10.25ZM15 21.5C17.0508 21.5 18.75 19.8594 18.75 17.75C18.75 15.6992 17.0508 14 15 14C12.8906 14 11.25 15.6992 11.25 17.75C11.25 19.8594 12.8906 21.5 15 21.5Z" fill="#00A9FF"/>
</svg>
