<svg width="15" height="12" viewBox="0 0 15 12" fill="none" xmlns="http://www.w3.org/2000/svg">
<g clip-path="url(#clip0_1084_1972)">
<path d="M0.750001 5.25H1.5V9.75H0.750001C0.651476 9.75012 0.553896 9.7308 0.462848 9.69315C0.371801 9.6555 0.289074 9.60026 0.219407 9.53059C0.149739 9.46093 0.0944992 9.3782 0.05685 9.28715C0.0192009 9.19611 -0.000117718 9.09853 5.39656e-07 9V6C-0.000117718 5.90148 0.0192009 5.8039 0.05685 5.71285C0.0944992 5.6218 0.149739 5.53907 0.219407 5.46941C0.289074 5.39974 0.371801 5.3445 0.462848 5.30685C0.553896 5.2692 0.651476 5.24988 0.750001 5.25ZM12.75 4.125V10.5C12.7496 10.8977 12.5914 11.279 12.3102 11.5602C12.029 11.8414 11.6477 11.9996 11.25 12H3.75C3.3523 11.9996 2.97099 11.8414 2.68977 11.5602C2.40855 11.279 2.25039 10.8977 2.25 10.5V4.125C2.24992 3.87875 2.29836 3.6349 2.39256 3.40737C2.48676 3.17985 2.62487 2.97312 2.799 2.799C2.97312 2.62487 3.17985 2.48676 3.40737 2.39256C3.6349 2.29836 3.87875 2.24992 4.125 2.25H6.75V0.75C6.75 0.551088 6.82902 0.360322 6.96967 0.21967C7.11032 0.0790176 7.30109 0 7.5 0C7.69891 0 7.88968 0.0790176 8.03033 0.21967C8.17098 0.360322 8.25 0.551088 8.25 0.75V2.25H10.875C11.1213 2.24992 11.3651 2.29836 11.5926 2.39256C11.8201 2.48676 12.0269 2.62487 12.201 2.799C12.3751 2.97312 12.5132 3.17985 12.6074 3.40737C12.7016 3.6349 12.7501 3.87875 12.75 4.125ZM6.1875 6C6.1875 5.81458 6.13252 5.63332 6.0295 5.47915C5.92649 5.32498 5.78007 5.20482 5.60877 5.13386C5.43746 5.06291 5.24896 5.04434 5.0671 5.08051C4.88525 5.11669 4.7182 5.20598 4.58709 5.33709C4.45598 5.4682 4.36669 5.63525 4.33051 5.8171C4.29434 5.99896 4.31291 6.18746 4.38386 6.35877C4.45482 6.53007 4.57498 6.67649 4.72915 6.7795C4.88332 6.88252 5.06458 6.9375 5.25 6.9375C5.37312 6.93751 5.49503 6.91327 5.60878 6.86616C5.72252 6.81905 5.82588 6.74999 5.91293 6.66293C5.99999 6.57588 6.06905 6.47252 6.11616 6.35878C6.16327 6.24503 6.18751 6.12312 6.1875 6ZM6 9H4.5V9.75H6V9ZM8.25 9H6.75V9.75H8.25V9ZM10.6875 6C10.6875 5.81458 10.6325 5.63332 10.5295 5.47915C10.4265 5.32498 10.2801 5.20482 10.1088 5.13386C9.93746 5.06291 9.74896 5.04434 9.5671 5.08051C9.38525 5.11669 9.2182 5.20598 9.08709 5.33709C8.95598 5.4682 8.86669 5.63525 8.83051 5.8171C8.79434 5.99896 8.81291 6.18746 8.88386 6.35877C8.95482 6.53007 9.07498 6.67649 9.22915 6.7795C9.38332 6.88252 9.56458 6.9375 9.75 6.9375C9.87312 6.93751 9.99503 6.91327 10.1088 6.86616C10.2225 6.81905 10.3259 6.74999 10.4129 6.66293C10.5 6.57588 10.569 6.47252 10.6162 6.35878C10.6633 6.24503 10.6875 6.12312 10.6875 6ZM10.5 9H9V9.75H10.5V9ZM15 6V9C15.0001 9.09853 14.9808 9.19611 14.9431 9.28715C14.9055 9.3782 14.8503 9.46093 14.7806 9.53059C14.7109 9.60026 14.6282 9.6555 14.5372 9.69315C14.4461 9.7308 14.3485 9.75012 14.25 9.75H13.5V5.25H14.25C14.3485 5.24988 14.4461 5.2692 14.5372 5.30685C14.6282 5.3445 14.7109 5.39974 14.7806 5.46941C14.8503 5.53907 14.9055 5.6218 14.9431 5.71285C14.9808 5.8039 15.0001 5.90148 15 6Z" fill="#61A6FB"/>
</g>
<defs>
<clipPath id="clip0_1084_1972">
<rect width="15" height="12" fill="white"/>
</clipPath>
</defs>
</svg>
