<svg width="35" height="34" viewBox="0 0 35 34" fill="none" xmlns="http://www.w3.org/2000/svg">
<rect width="35" height="34" rx="8" fill="#132541"/>
<path d="M25.6603 10.0002C24.6002 8.93737 23.1951 8.28871 21.6986 8.17134C20.2021 8.05397 18.713 8.47563 17.5003 9.36017C16.2279 8.4138 14.6443 7.98468 13.0682 8.1592C11.4921 8.33373 10.0407 9.09894 9.00625 10.3008C7.97178 11.5026 7.4311 13.0517 7.49308 14.6362C7.55506 16.2207 8.21509 17.7228 9.34028 18.8402L15.5503 25.0602C16.0703 25.5719 16.7707 25.8588 17.5003 25.8588C18.2299 25.8588 18.9303 25.5719 19.4503 25.0602L25.6603 18.8402C26.8279 17.6654 27.4832 16.0764 27.4832 14.4202C27.4832 12.7639 26.8279 11.1749 25.6603 10.0002ZM24.2503 17.4602L18.0403 23.6702C17.9696 23.7415 17.8855 23.7982 17.7928 23.8368C17.7001 23.8755 17.6007 23.8954 17.5003 23.8954C17.3999 23.8954 17.3004 23.8755 17.2077 23.8368C17.115 23.7982 17.0309 23.7415 16.9603 23.6702L10.7503 17.4302C9.96603 16.6285 9.52689 15.5516 9.52689 14.4302C9.52689 13.3087 9.96603 12.2318 10.7503 11.4302C11.5494 10.6412 12.6272 10.1987 13.7503 10.1987C14.8733 10.1987 15.9511 10.6412 16.7503 11.4302C16.8432 11.5239 16.9538 11.5983 17.0757 11.6491C17.1976 11.6998 17.3283 11.726 17.4603 11.726C17.5923 11.726 17.723 11.6998 17.8449 11.6491C17.9667 11.5983 18.0773 11.5239 18.1703 11.4302C18.9694 10.6412 20.0472 10.1987 21.1703 10.1987C22.2933 10.1987 23.3711 10.6412 24.1703 11.4302C24.9653 12.2213 25.4189 13.2924 25.4338 14.4139C25.4488 15.5353 25.0239 16.6181 24.2503 17.4302V17.4602Z" fill="#46A8FF"/>
</svg>

