<svg width="35" height="34" viewBox="0 0 35 34" fill="none" xmlns="http://www.w3.org/2000/svg">
<rect width="35" height="34" rx="8" fill="#132541"/>
<path d="M17.5 27C16.1167 27 14.8167 26.7373 13.6 26.212C12.3833 25.6867 11.325 24.9743 10.425 24.075C9.525 23.1757 8.81267 22.1173 8.288 20.9C7.76333 19.6827 7.50067 18.3827 7.5 17C7.49933 15.6173 7.762 14.3173 8.288 13.1C8.814 11.8827 9.52633 10.8243 10.425 9.925C11.3237 9.02567 12.382 8.31333 13.6 7.788C14.818 7.26267 16.118 7 17.5 7C18.882 7 20.182 7.26267 21.4 7.788C22.618 8.31333 23.6763 9.02567 24.575 9.925C25.4737 10.8243 26.1863 11.8827 26.713 13.1C27.2397 14.3173 27.502 15.6173 27.5 17C27.498 18.3827 27.2353 19.6827 26.712 20.9C26.1887 22.1173 25.4763 23.1757 24.575 24.075C23.6737 24.9743 22.6153 25.687 21.4 26.213C20.1847 26.739 18.8847 27.0013 17.5 27ZM17.5 25C19.7333 25 21.625 24.225 23.175 22.675C24.725 21.125 25.5 19.2333 25.5 17C25.5 14.7667 24.725 12.875 23.175 11.325C21.625 9.775 19.7333 9 17.5 9C15.2667 9 13.375 9.775 11.825 11.325C10.275 12.875 9.5 14.7667 9.5 17C9.5 19.2333 10.275 21.125 11.825 22.675C13.375 24.225 15.2667 25 17.5 25ZM17.5 23C15.8333 23 14.4167 22.4167 13.25 21.25C12.0833 20.0833 11.5 18.6667 11.5 17C11.5 15.3333 12.0833 13.9167 13.25 12.75C14.4167 11.5833 15.8333 11 17.5 11C19.1667 11 20.5833 11.5833 21.75 12.75C22.9167 13.9167 23.5 15.3333 23.5 17C23.5 18.6667 22.9167 20.0833 21.75 21.25C20.5833 22.4167 19.1667 23 17.5 23ZM17.5 21C18.6 21 19.5417 20.6083 20.325 19.825C21.1083 19.0417 21.5 18.1 21.5 17C21.5 15.9 21.1083 14.9583 20.325 14.175C19.5417 13.3917 18.6 13 17.5 13C16.4 13 15.4583 13.3917 14.675 14.175C13.8917 14.9583 13.5 15.9 13.5 17C13.5 18.1 13.8917 19.0417 14.675 19.825C15.4583 20.6083 16.4 21 17.5 21ZM17.5 19C16.95 19 16.4793 18.8043 16.088 18.413C15.6967 18.0217 15.5007 17.5507 15.5 17C15.4993 16.4493 15.6953 15.9787 16.088 15.588C16.4807 15.1973 16.9513 15.0013 17.5 15C18.0487 14.9987 18.5197 15.1947 18.913 15.588C19.3063 15.9813 19.502 16.452 19.5 17C19.498 17.548 19.3023 18.019 18.913 18.413C18.5237 18.807 18.0527 19.0027 17.5 19Z" fill="#00A9FF"/>
</svg>
