<svg width="35" height="34" viewBox="0 0 35 34" fill="none" xmlns="http://www.w3.org/2000/svg">
<rect width="35" height="34" rx="8" fill="#132541"/>
<path d="M28.5772 9.02764C28.5074 8.94161 28.4194 8.8721 28.3196 8.82412C28.2197 8.77614 28.1105 8.75088 27.9997 8.75014H25.4197L25.4797 8.33764C25.5287 8.01517 25.5069 7.68591 25.416 7.37268C25.325 7.05944 25.1671 6.76973 24.9531 6.5236C24.739 6.27747 24.4741 6.08082 24.1765 5.94726C23.8789 5.81371 23.5559 5.74645 23.2297 5.75014H11.7397C11.4136 5.74645 11.0905 5.81371 10.793 5.94726C10.4954 6.08082 10.2304 6.27747 10.0164 6.5236C9.80235 6.76973 9.6444 7.05944 9.55346 7.37268C9.46252 7.68591 9.44077 8.01517 9.48972 8.33764L9.57972 8.75014H6.99972C6.88894 8.75088 6.7797 8.77614 6.67985 8.82412C6.57999 8.8721 6.49201 8.94161 6.42222 9.02764C6.3489 9.112 6.29536 9.21167 6.26552 9.31937C6.23567 9.42707 6.23028 9.54009 6.24972 9.65014L7.52472 15.9426C7.62694 16.4522 7.90243 16.9107 8.30438 17.2402C8.70634 17.5697 9.20997 17.7499 9.72972 17.7501H11.0722C11.6678 19.4242 12.8993 20.7958 14.4997 21.5676V23.7501H12.2497C12.1112 23.7506 11.9755 23.7893 11.8577 23.8621C11.7399 23.9349 11.6445 24.039 11.5822 24.1626L10.0822 27.1626C10.0247 27.2768 9.9973 27.4038 10.0026 27.5315C10.008 27.6593 10.0459 27.7835 10.1128 27.8925C10.1797 28.0014 10.2733 28.0915 10.3848 28.1541C10.4962 28.2167 10.6219 28.2498 10.7497 28.2501H24.2497C24.3776 28.2498 24.5032 28.2167 24.6147 28.1541C24.7261 28.0915 24.8198 28.0014 24.8866 27.8925C24.9535 27.7835 24.9914 27.6593 24.9968 27.5315C25.0021 27.4038 24.9748 27.2768 24.9172 27.1626L23.4172 24.1626C23.3549 24.039 23.2595 23.9349 23.1417 23.8621C23.0239 23.7893 22.8882 23.7506 22.7497 23.7501H20.4997V21.5676C22.1001 20.7958 23.3317 19.4242 23.9272 17.7501H25.2697C25.7895 17.7499 26.2931 17.5697 26.6951 17.2402C27.097 16.9107 27.3725 16.4522 27.4747 15.9426L28.7497 9.65014C28.7692 9.54009 28.7638 9.42707 28.7339 9.31937C28.7041 9.21167 28.6505 9.112 28.5772 9.02764ZM8.99472 15.6501L7.91472 10.2501H9.80472L10.7047 16.2501H9.72972C9.55682 16.2502 9.38922 16.1905 9.25528 16.0811C9.12135 15.9718 9.0293 15.8195 8.99472 15.6501ZM23.0347 26.7501H11.9647L12.7147 25.2501H22.2847L23.0347 26.7501ZM18.9997 23.7501H15.9997V22.0776C16.9865 22.3077 18.0129 22.3077 18.9997 22.0776V23.7501ZM17.4997 20.7501C16.2236 20.7488 14.9907 20.2879 14.0266 19.4519C13.0625 18.6159 12.4318 17.4607 12.2497 16.1976L10.9972 8.11264C10.9812 8.00611 10.9883 7.89738 11.0181 7.79384C11.0478 7.69031 11.0996 7.5944 11.1697 7.51264C11.2401 7.43032 11.3275 7.36423 11.4259 7.31891C11.5243 7.2736 11.6314 7.25014 11.7397 7.25014H23.2597C23.368 7.25014 23.4751 7.2736 23.5735 7.31891C23.6719 7.36423 23.7593 7.43032 23.8297 7.51264C23.8999 7.5944 23.9516 7.69031 23.9814 7.79384C24.0111 7.89738 24.0182 8.00611 24.0022 8.11264L22.7872 16.1976C22.6043 17.4671 21.9681 18.6274 20.9961 19.4642C20.0242 20.3011 18.7822 20.7578 17.4997 20.7501ZM26.0047 15.6501C25.9697 15.8221 25.8754 15.9763 25.7384 16.0859C25.6013 16.1956 25.4302 16.2537 25.2547 16.2501H24.2797L25.1797 10.2501H27.0697L26.0047 15.6501Z" fill="#46A8FF"/>
</svg>
