<svg width="30" height="40" viewBox="0 0 30 40" fill="none" xmlns="http://www.w3.org/2000/svg">
<path d="M26.25 5C28.2812 5 30 6.71875 30 8.75V36.25C30 38.3594 28.2812 40 26.25 40H3.75C1.64062 40 0 38.3594 0 36.25V8.75C0 6.71875 1.64062 5 3.75 5H10C10 2.26562 12.1875 0 15 0C17.7344 0 20 2.26562 20 5H26.25ZM7.5 33.125C8.51562 33.125 9.375 32.3438 9.375 31.25C9.375 30.2344 8.51562 29.375 7.5 29.375C6.40625 29.375 5.625 30.2344 5.625 31.25C5.625 32.3438 6.40625 33.125 7.5 33.125ZM7.5 25.625C8.51562 25.625 9.375 24.8438 9.375 23.75C9.375 22.7344 8.51562 21.875 7.5 21.875C6.40625 21.875 5.625 22.7344 5.625 23.75C5.625 24.8438 6.40625 25.625 7.5 25.625ZM7.5 18.125C8.51562 18.125 9.375 17.3438 9.375 16.25C9.375 15.2344 8.51562 14.375 7.5 14.375C6.40625 14.375 5.625 15.2344 5.625 16.25C5.625 17.3438 6.40625 18.125 7.5 18.125ZM15 3.125C13.9062 3.125 13.125 3.98438 13.125 5C13.125 6.09375 13.9062 6.875 15 6.875C16.0156 6.875 16.875 6.09375 16.875 5C16.875 3.98438 16.0156 3.125 15 3.125ZM25 31.875V30.625C25 30.3125 24.6875 30 24.375 30H13.125C12.7344 30 12.5 30.3125 12.5 30.625V31.875C12.5 32.2656 12.7344 32.5 13.125 32.5H24.375C24.6875 32.5 25 32.2656 25 31.875ZM25 24.375V23.125C25 22.8125 24.6875 22.5 24.375 22.5H13.125C12.7344 22.5 12.5 22.8125 12.5 23.125V24.375C12.5 24.7656 12.7344 25 13.125 25H24.375C24.6875 25 25 24.7656 25 24.375ZM25 16.875V15.625C25 15.3125 24.6875 15 24.375 15H13.125C12.7344 15 12.5 15.3125 12.5 15.625V16.875C12.5 17.2656 12.7344 17.5 13.125 17.5H24.375C24.6875 17.5 25 17.2656 25 16.875Z" fill="white"/>
</svg>
