<svg width="45" height="40" viewBox="0 0 45 40" fill="none" xmlns="http://www.w3.org/2000/svg">
<path d="M45 18.75C45 20.625 43.9844 22.2656 42.4219 23.125V35C42.4219 35.7812 41.875 37.5 39.9219 37.5C39.375 37.5 38.8281 37.3438 38.4375 36.9531L31.7188 31.6406C28.4375 28.9844 24.2188 27.5 20 27.5H17.7344C17.5781 28.3594 17.4219 29.1406 17.4219 30C17.4219 32.3438 18.2031 34.375 19.4531 36.0938C20.7031 37.7344 19.4531 40 17.4219 40H11.6406C10.7031 40 9.84375 39.5312 9.45312 38.6719C8.125 36.0938 7.42188 33.125 7.42188 30C7.42188 29.2188 7.5 28.3594 7.57812 27.5H5C2.1875 27.5 0 25.3125 0 22.5V15C0 12.2656 2.1875 10 5 10H20C24.2188 10 28.4375 8.59375 31.7188 5.9375L38.4375 0.625C38.8281 0.234375 39.375 0 40 0C41.9531 0 42.5 1.875 42.5 2.57812V14.4531C43.9844 15.3125 45 16.9531 45 18.75ZM37.5 29.8438V7.73438L34.8438 9.84375C30.625 13.2031 25.3906 15 20 15V22.5C25.3906 22.5 30.625 24.375 34.8438 27.7344L37.5 29.8438Z" fill="white"/>
</svg>
