<svg width="42" height="42" viewBox="0 0 42 42" fill="none" xmlns="http://www.w3.org/2000/svg">
<path d="M40.1562 9.14062C41.0938 12.8125 40.0781 16.875 37.1875 19.7656C34.0625 22.8906 29.6094 23.75 25.7031 22.5L9.0625 39.1406C7.10938 41.0938 3.90625 41.0938 1.95312 39.1406C0 37.1875 0 33.9844 1.95312 32.0312L18.6719 15.3906C17.3438 11.4844 18.2031 6.95312 21.3281 3.90625C24.2188 1.01562 28.2812 0 31.9531 0.9375C32.6562 1.09375 32.9688 1.95312 32.4219 2.5L26.6406 8.28125L27.5 13.5938L32.8125 14.4531L38.5938 8.67188C39.1406 8.20312 40 8.4375 40.1562 9.14062ZM5.54688 37.4219C6.5625 37.4219 7.42188 36.6406 7.42188 35.5469C7.42188 34.5312 6.5625 33.6719 5.54688 33.6719C4.45312 33.6719 3.67188 34.5312 3.67188 35.5469C3.67188 36.6406 4.45312 37.4219 5.54688 37.4219Z" fill="white"/>
</svg>
