<svg width="40" height="30" viewBox="0 0 40 30" fill="none" xmlns="http://www.w3.org/2000/svg">
<path d="M25.9375 20C25.4688 20 25 19.5312 25 19.0625V8.51562C25 8.04688 25.4688 7.5 25.9375 7.5H28.9844C29.4531 7.5 30 8.04688 30 8.51562V19.0625C30 19.5312 29.4531 20 28.9844 20H25.9375ZM33.4375 20C32.9688 20 32.5 19.5312 32.5 19.0625V1.01562C32.5 0.546875 32.9688 0 33.4375 0H36.4844C36.9531 0 37.5 0.546875 37.5 1.01562V19.0625C37.5 19.5312 36.9531 20 36.4844 20H33.4375ZM10.9375 20C10.4688 20 10 19.5312 10 19.0625V13.5156C10 13.0469 10.4688 12.5 10.9375 12.5H13.9844C14.4531 12.5 15 13.0469 15 13.5156V19.0625C15 19.5312 14.4531 20 13.9844 20H10.9375ZM18.4375 20C17.9688 20 17.5 19.5312 17.5 19.0625V3.51562C17.5 3.04688 17.9688 2.5 18.4375 2.5H21.4844C21.9531 2.5 22.5 3.04688 22.5 3.51562V19.0625C22.5 19.5312 21.9531 20 21.4844 20H18.4375ZM38.75 25C39.375 25 40 25.625 40 26.25V28.75C40 29.4531 39.375 30 38.75 30H2.5C1.09375 30 0 28.9062 0 27.5V1.25C0 0.625 0.546875 0 1.25 0H3.75C4.375 0 5 0.625 5 1.25V25H38.75Z" fill="white"/>
</svg>
