<svg width="35" height="34" viewBox="0 0 35 34" fill="none" xmlns="http://www.w3.org/2000/svg">
<rect width="35" height="34" rx="8" fill="#132541"/>
<path d="M12 17L12.7845 18.5689C13.05 19.0999 13.1827 19.3654 13.36 19.5954C13.5174 19.7996 13.7004 19.9826 13.9045 20.14C14.1346 20.3173 14.4001 20.4501 14.9311 20.7155L16.5 21.5L14.9311 22.2845C14.4001 22.5499 14.1346 22.6827 13.9045 22.86C13.7004 23.0174 13.5174 23.2004 13.36 23.4046C13.1827 23.6346 13.05 23.9001 12.7845 24.4311L12 26L11.2155 24.4311C10.95 23.9001 10.8173 23.6346 10.64 23.4046C10.4826 23.2004 10.2996 23.0174 10.0954 22.86C9.86538 22.6827 9.5999 22.5499 9.06892 22.2845L7.5 21.5L9.06892 20.7155C9.5999 20.4501 9.86538 20.3173 10.0954 20.14C10.2996 19.9826 10.4826 19.7996 10.64 19.5954C10.8173 19.3654 10.95 19.0999 11.2155 18.5689L12 17ZM20.5 6L21.6786 9.06442C21.9606 9.79765 22.1016 10.1643 22.3209 10.4726C22.5153 10.746 22.754 10.9848 23.0274 11.1791C23.3357 11.3984 23.7024 11.5394 24.4356 11.8214L27.5 13L24.4356 14.1786C23.7024 14.4606 23.3357 14.6016 23.0274 14.8209C22.754 15.0153 22.5153 15.254 22.3209 15.5274C22.1016 15.8357 21.9606 16.2024 21.6786 16.9356L20.5 20L19.3214 16.9356C19.0394 16.2024 18.8984 15.8357 18.6791 15.5274C18.4847 15.254 18.246 15.0153 17.9726 14.8209C17.6643 14.6016 17.2976 14.4606 16.5644 14.1786L13.5 13L16.5644 11.8214C17.2976 11.5394 17.6643 11.3984 17.9726 11.1791C18.246 10.9848 18.4847 10.746 18.6791 10.4726C18.8984 10.1643 19.0394 9.79765 19.3214 9.06442L20.5 6Z" stroke="#46A8FF" stroke-width="2" stroke-linecap="round" stroke-linejoin="round"/>
</svg>
