<svg width="51" height="36" viewBox="0 0 51 36" fill="none" xmlns="http://www.w3.org/2000/svg">
<path d="M33.4375 17.5C33.8281 17.5 34.1406 17.5 34.5312 17.4219L45.2344 14.2969V28.2031C45.2344 29.375 44.4531 30.3906 43.2812 30.625L26.4062 34.9219C25.625 35.0781 24.7656 35.0781 23.9844 34.9219L7.10938 30.625C6.01562 30.3906 5.23438 29.375 5.23438 28.2031V14.2969L15.9375 17.4219C16.25 17.5 16.5625 17.5781 16.9531 17.5781C18.2812 17.5781 19.5312 16.875 20.1562 15.7031L25.2344 7.34375L30.2344 15.7031C30.8594 16.7969 32.1094 17.5 33.4375 17.5ZM50.0781 8.75C50.3906 9.45312 50.0781 10.3125 49.2969 10.5469L33.8281 15C33.2812 15.1562 32.6562 14.9219 32.3438 14.4531L25.2344 2.5L44.7656 0.078125C45.3125 0 45.7812 0.234375 46.0156 0.703125L50.0781 8.75ZM4.375 0.703125C4.60938 0.234375 5.07812 0 5.625 0.078125L25.2344 2.5L18.0469 14.375C17.7344 14.9219 17.1094 15.1562 16.5625 15L1.09375 10.5469C0.390625 10.3125 0 9.45312 0.3125 8.75L4.375 0.703125Z" fill="white"/>
</svg>
