<svg width="40" height="40" viewBox="0 0 40 40" fill="none" xmlns="http://www.w3.org/2000/svg">
<path d="M15 16.25V25C15 26.4062 13.8281 27.5 12.5 27.5H11.25C8.4375 27.5 6.25 25.3125 6.25 22.5V18.75C6.25 16.0156 8.4375 13.75 11.25 13.75H12.5C13.8281 13.75 15 14.9219 15 16.25ZM28.75 27.5H27.5C26.0938 27.5 25 26.4062 25 25V16.25C25 14.9219 26.0938 13.75 27.5 13.75H28.75C31.4844 13.75 33.75 16.0156 33.75 18.75V22.5C33.75 25.3125 31.4844 27.5 28.75 27.5ZM20 0C31.0938 0 39.6094 9.29688 40 20V32.9688C40 36.875 36.7969 40 32.8906 40H18.75C16.6406 40 15 38.3594 15 36.25C15 34.2188 16.6406 32.5 18.75 32.5H21.25C23.2812 32.5 25 34.2188 25 36.25H32.8906C34.7656 36.25 36.25 34.8438 36.25 32.9688C36.25 32.9688 36.1719 20.2344 36.1719 20H36.25C36.25 11.0938 28.9062 3.75 20 3.75C11.0156 3.75 3.75 11.0938 3.75 20V21.25C3.75 21.9531 3.125 22.5 2.5 22.5H1.25C0.546875 22.5 0 21.9531 0 21.25V20C0.3125 9.29688 8.82812 0 20 0Z" fill="white"/>
</svg>
