<svg width="40" height="35" viewBox="0 0 40 35" fill="none" xmlns="http://www.w3.org/2000/svg">
<path d="M37.5 10H2.5C1.09375 10 0 8.90625 0 7.5V2.5C0 1.17188 1.09375 0 2.5 0H37.5C38.8281 0 40 1.17188 40 2.5V7.5C40 8.90625 38.8281 10 37.5 10ZM33.75 3.125C32.6562 3.125 31.875 3.98438 31.875 5C31.875 6.09375 32.6562 6.875 33.75 6.875C34.7656 6.875 35.625 6.09375 35.625 5C35.625 3.98438 34.7656 3.125 33.75 3.125ZM28.75 3.125C27.6562 3.125 26.875 3.98438 26.875 5C26.875 6.09375 27.6562 6.875 28.75 6.875C29.7656 6.875 30.625 6.09375 30.625 5C30.625 3.98438 29.7656 3.125 28.75 3.125ZM37.5 22.5H2.5C1.09375 22.5 0 21.4062 0 20V15C0 13.6719 1.09375 12.5 2.5 12.5H37.5C38.8281 12.5 40 13.6719 40 15V20C40 21.4062 38.8281 22.5 37.5 22.5ZM33.75 15.625C32.6562 15.625 31.875 16.4844 31.875 17.5C31.875 18.5938 32.6562 19.375 33.75 19.375C34.7656 19.375 35.625 18.5938 35.625 17.5C35.625 16.4844 34.7656 15.625 33.75 15.625ZM28.75 15.625C27.6562 15.625 26.875 16.4844 26.875 17.5C26.875 18.5938 27.6562 19.375 28.75 19.375C29.7656 19.375 30.625 18.5938 30.625 17.5C30.625 16.4844 29.7656 15.625 28.75 15.625ZM37.5 35H2.5C1.09375 35 0 33.9062 0 32.5V27.5C0 26.1719 1.09375 25 2.5 25H37.5C38.8281 25 40 26.1719 40 27.5V32.5C40 33.9062 38.8281 35 37.5 35ZM33.75 28.125C32.6562 28.125 31.875 28.9844 31.875 30C31.875 31.0938 32.6562 31.875 33.75 31.875C34.7656 31.875 35.625 31.0938 35.625 30C35.625 28.9844 34.7656 28.125 33.75 28.125ZM28.75 28.125C27.6562 28.125 26.875 28.9844 26.875 30C26.875 31.0938 27.6562 31.875 28.75 31.875C29.7656 31.875 30.625 31.0938 30.625 30C30.625 28.9844 29.7656 28.125 28.75 28.125Z" fill="white"/>
</svg>
