<svg width="51" height="41" viewBox="0 0 51 41" fill="none" xmlns="http://www.w3.org/2000/svg">
<path d="M21.875 40.0781L17.1094 38.6719C16.6406 38.5156 16.3281 38.0469 16.4844 37.5L27.1875 0.78125C27.3438 0.3125 27.8125 0 28.3594 0.15625L33.125 1.5625C33.5938 1.64062 33.9062 2.1875 33.75 2.73438L23.0469 39.4531C22.8906 39.9219 22.4219 40.2344 21.875 40.0781ZM12.9688 31.3281C12.6562 31.7188 12.0312 31.7188 11.6406 31.3281L0.390625 20.7812C0 20.3906 0 19.7656 0.390625 19.4531L11.6406 8.90625C12.0312 8.51562 12.6562 8.51562 12.9688 8.90625L16.4062 12.5781C16.7969 12.8906 16.7188 13.5156 16.3281 13.9062L9.29688 20.0781L16.3281 26.3281C16.7188 26.7188 16.7969 27.2656 16.4062 27.6562L12.9688 31.3281ZM38.5938 31.3281C38.2031 31.7188 37.5781 31.7188 37.2656 31.3281L33.8281 27.6562C33.4375 27.2656 33.5156 26.7188 33.9062 26.3281L41.0156 20.0781L33.9062 13.9062C33.5156 13.5156 33.5156 12.8906 33.8281 12.5L37.2656 8.90625C37.5781 8.51562 38.2031 8.51562 38.5938 8.90625L49.8438 19.4531C50.2344 19.7656 50.2344 20.4688 49.8438 20.7812L38.5938 31.3281Z" fill="white"/>
</svg>
