<svg width="16" height="16" viewBox="0 0 16 16" fill="none" xmlns="http://www.w3.org/2000/svg">
<path d="M14.9997 7.99967C15.0013 8.20475 14.9389 8.40524 14.8213 8.57325C14.7037 8.74127 14.5367 8.86847 14.3434 8.93717L10.3784 10.379L8.93717 14.3434C8.86613 14.5348 8.73823 14.6999 8.57064 14.8164C8.40305 14.933 8.20381 14.9954 7.99967 14.9954C7.79554 14.9954 7.59629 14.933 7.4287 14.8164C7.26111 14.6999 7.13321 14.5348 7.06217 14.3434L5.62092 10.3784L1.65592 8.93717C1.46454 8.86613 1.29949 8.73823 1.18294 8.57064C1.06638 8.40305 1.00391 8.20381 1.00391 7.99967C1.00391 7.79554 1.06638 7.59629 1.18294 7.4287C1.29949 7.26111 1.46454 7.13321 1.65592 7.06217L5.62092 5.62092L7.06217 1.65592C7.13321 1.46454 7.26111 1.29949 7.4287 1.18294C7.59629 1.06638 7.79554 1.00391 7.99967 1.00391C8.20381 1.00391 8.40305 1.06638 8.57064 1.18294C8.73823 1.29949 8.86613 1.46454 8.93717 1.65592L10.379 5.62092L14.3434 7.06217C14.5367 7.13087 14.7037 7.25807 14.8213 7.42609C14.9389 7.59411 15.0013 7.79459 14.9997 7.99967Z" fill="#61A6FB"/>
</svg>

