<svg width="100" height="55" viewBox="0 0 100 55" fill="none" xmlns="http://www.w3.org/2000/svg">
<path d="M28.9111 16.166C29.3536 16.166 29.7119 16.5253 29.7119 16.9678V36.752C29.7096 36.7532 29.7074 36.7546 29.7051 36.7559H28.7852C27.1834 35.8032 25.3888 35.4531 23.6816 35.4531C23.5552 35.4531 23.4289 35.4546 23.3027 35.459V16.9678C23.3027 16.5253 23.662 16.166 24.1045 16.166H28.9111ZM86.916 24.3379C87.3583 24.3381 87.7168 24.6973 87.7168 25.1396V35.6982C86.6481 35.7243 85.6681 36.1106 84.8955 36.7412C83.6572 36.0659 82.3368 35.6772 80.9873 35.5264V25.1396C80.9873 24.6972 81.3456 24.3379 81.7881 24.3379H86.916ZM17.5342 25.582C17.9766 25.582 18.3348 25.9405 18.335 26.3828V35.6963H17.0029C16.1793 35.6963 15.4052 35.9112 14.7344 36.2871L13.9209 34.0889C13.4762 32.887 12.5688 31.9524 11.4453 31.4541V26.3828C11.4455 25.9406 11.8039 25.5822 12.2461 25.582H17.5342ZM52.3047 0C52.747 0 53.1062 0.358486 53.1064 0.800781V35.4707C52.8783 35.4601 52.6519 35.4531 52.4287 35.4531C51.3076 35.4531 50.1983 35.577 49.1104 35.8301V35.1455C49.1101 33.1993 47.9135 31.5335 46.2158 30.8418V0.800781C46.216 0.358486 46.5752 0 47.0176 0H52.3047ZM40.6084 9.77148C41.0508 9.77148 41.41 10.1299 41.4102 10.5723V30.5107C38.9942 30.6761 37.0852 32.6876 37.085 35.1455V35.5645C36.4771 35.4899 35.8637 35.4531 35.248 35.4531C35.0065 35.4531 34.7635 35.4597 34.5195 35.4717V10.5723C34.5197 10.1299 34.8789 9.77148 35.3213 9.77148H40.6084ZM75.292 16.1621C75.7345 16.1621 76.0937 16.5204 76.0938 16.9629V35.1719C76.0938 35.2721 76.0737 35.3675 76.04 35.4561C75.7857 34.2969 75.1718 32.9894 73.8193 32.0088H73.8184C72.6381 31.1474 71.2969 30.7881 70.0146 30.7881C69.8697 30.7881 69.7234 30.7924 69.5762 30.8018V16.9629C69.5762 16.5204 69.9355 16.1621 70.3779 16.1621H75.292ZM64.0029 9.77148C64.4451 9.77172 64.8035 10.1301 64.8037 10.5723V33.1338C64.3058 32.9511 63.7682 32.8497 63.207 32.8496H61.4932C60.0782 32.8498 58.7787 33.4925 57.9141 34.5381V10.5723C57.9142 10.1299 58.2725 9.77148 58.7148 9.77148H64.0029Z" fill="url(#paint0_linear_1326_1410)"/>
<path d="M94.5818 41.7109C96.0249 41.7109 97.1478 42.0852 97.9504 42.8338C98.7607 43.5747 99.1659 44.767 99.1659 46.4108V54.7688H96.4455V46.9202C96.4455 45.9246 96.241 45.1799 95.832 44.686C95.423 44.1844 94.7901 43.9336 93.9335 43.9336C92.691 43.9336 91.8266 44.3156 91.3404 45.0796C90.862 45.8436 90.6227 46.9511 90.6227 48.4019V54.7688H87.9023V41.954H90.0208L90.4028 43.6905H90.5533C90.8311 43.2428 91.1745 42.8763 91.5835 42.5907C92.0003 42.2975 92.4633 42.0775 92.9727 41.9309C93.4897 41.7843 94.0261 41.7109 94.5818 41.7109Z" fill="white"/>
<path d="M85.724 48.3325C85.724 49.3975 85.5851 50.3429 85.3073 51.1686C85.0294 51.9944 84.6243 52.6928 84.0918 53.2639C83.5593 53.8273 82.9187 54.2594 82.1701 54.5604C81.4215 54.8537 80.5765 55.0003 79.635 55.0003C78.7552 55.0003 77.9487 54.8537 77.2155 54.5604C76.4824 54.2594 75.8457 53.8273 75.3055 53.2639C74.773 52.6928 74.3601 51.9944 74.0668 51.1686C73.7736 50.3429 73.627 49.3975 73.627 48.3325C73.627 46.9202 73.87 45.724 74.3562 44.7439C74.8502 43.7561 75.5524 43.0036 76.4631 42.4865C77.3738 41.9695 78.4581 41.7109 79.716 41.7109C80.8968 41.7109 81.9386 41.9695 82.8415 42.4865C83.7445 43.0036 84.4506 43.7561 84.96 44.7439C85.4693 45.7317 85.724 46.9279 85.724 48.3325ZM76.4284 48.3325C76.4284 49.2663 76.5403 50.065 76.7641 50.7287C76.9956 51.3924 77.3506 51.9018 77.8291 52.2568C78.3076 52.6041 78.9249 52.7777 79.6813 52.7777C80.4376 52.7777 81.055 52.6041 81.5334 52.2568C82.0119 51.9018 82.3631 51.3924 82.5869 50.7287C82.8107 50.065 82.9226 49.2663 82.9226 48.3325C82.9226 47.3987 82.8107 46.6076 82.5869 45.9594C82.3631 45.3034 82.0119 44.8056 81.5334 44.4661C81.055 44.1188 80.4337 43.9451 79.6697 43.9451C78.5429 43.9451 77.721 44.3233 77.204 45.0796C76.6869 45.8359 76.4284 46.9202 76.4284 48.3325Z" fill="white"/>
<path d="M71.4274 41.9532V54.768H68.707V41.9532H71.4274ZM70.0846 37.0449C70.5013 37.0449 70.8601 37.1568 71.1611 37.3806C71.4698 37.6044 71.6242 37.9903 71.6242 38.5382C71.6242 39.0785 71.4698 39.4643 71.1611 39.6959C70.8601 39.9197 70.5013 40.0316 70.0846 40.0316C69.6524 40.0316 69.2858 39.9197 68.9848 39.6959C68.6916 39.4643 68.5449 39.0785 68.5449 38.5382C68.5449 37.9903 68.6916 37.6044 68.9848 37.3806C69.2858 37.1568 69.6524 37.0449 70.0846 37.0449Z" fill="white"/>
<path d="M65.048 52.801C65.403 52.801 65.7541 52.7701 66.1014 52.7084C66.4487 52.6389 66.7651 52.5579 67.0506 52.4653V54.5258C66.7497 54.657 66.3599 54.7689 65.8815 54.8615C65.403 54.9541 64.9052 55.0005 64.3881 55.0005C63.6627 55.0005 63.0106 54.8808 62.4318 54.6416C61.853 54.3946 61.3938 53.974 61.0542 53.3798C60.7147 52.7856 60.5449 51.9637 60.5449 50.9141V44.0263H58.7969V42.8108L60.6722 41.85L61.5636 39.1064H63.2768V41.9542H66.9465V44.0263H63.2768V50.8794C63.2768 51.5276 63.4389 52.01 63.763 52.3264C64.0872 52.6428 64.5155 52.801 65.048 52.801Z" fill="white"/>
<path d="M52.4973 41.71C54.1179 41.71 55.3412 42.0688 56.1669 42.7865C57.0004 43.5043 57.4171 44.6233 57.4171 46.1436V54.7678H55.4839L54.963 52.9504H54.8704C54.5077 53.4134 54.1334 53.7954 53.7475 54.0964C53.3616 54.3974 52.914 54.6212 52.4047 54.7678C51.903 54.9222 51.2895 54.9993 50.5641 54.9993C49.8001 54.9993 49.1171 54.8604 48.5151 54.5826C47.9131 54.2971 47.4385 53.8649 47.0912 53.2861C46.744 52.7073 46.5703 51.9741 46.5703 51.0866C46.5703 49.7669 47.0604 48.7752 48.0405 48.1116C49.0283 47.4479 50.5178 47.0813 52.5089 47.0118L54.7315 46.9308V46.2594C54.7315 45.3719 54.5231 44.739 54.1064 44.3609C53.6973 43.9827 53.1185 43.7937 52.3699 43.7937C51.7294 43.7937 51.1082 43.8863 50.5062 44.0715C49.9042 44.2567 49.3177 44.4844 48.7466 44.7545L47.8668 42.8328C48.492 42.501 49.202 42.2309 49.9968 42.0225C50.7995 41.8141 51.6329 41.71 52.4973 41.71ZM54.7199 48.6441L53.0645 48.7019C51.7063 48.7482 50.7531 48.9798 50.2052 49.3965C49.6573 49.8132 49.3833 50.3843 49.3833 51.1098C49.3833 51.7426 49.5724 52.2056 49.9505 52.4989C50.3287 52.7844 50.8265 52.9272 51.4439 52.9272C52.3854 52.9272 53.1648 52.661 53.7822 52.1285C54.4073 51.5882 54.7199 50.7972 54.7199 49.7554V48.6441Z" fill="white"/>
<path d="M44.5327 54.7683H41.8008V36.7559H44.5327V54.7683Z" fill="white"/>
<path d="M39.8079 51.1098C39.8079 51.951 39.6034 52.661 39.1943 53.2398C38.7853 53.8186 38.1872 54.2585 37.4 54.5594C36.6206 54.8527 35.6636 54.9993 34.5292 54.9993C33.6339 54.9993 32.8622 54.9337 32.2139 54.8025C31.5734 54.6791 30.9676 54.4861 30.3965 54.2237V51.8738C31.0062 52.1593 31.6892 52.4063 32.4455 52.6147C33.2095 52.823 33.9311 52.9272 34.6102 52.9272C35.5054 52.9272 36.1498 52.7883 36.5434 52.5105C36.937 52.2249 37.1338 51.8468 37.1338 51.376C37.1338 51.0982 37.0528 50.8512 36.8907 50.6351C36.7363 50.4113 36.4431 50.1837 36.0109 49.9522C35.5864 49.7129 34.9613 49.4274 34.1356 49.0955C33.3252 48.7714 32.6423 48.4473 32.0866 48.1231C31.5309 47.799 31.1103 47.4093 30.8248 46.9539C30.5393 46.4909 30.3965 45.9005 30.3965 45.1828C30.3965 44.0483 30.8441 43.1878 31.7393 42.6013C32.6423 42.0071 33.8346 41.71 35.3163 41.71C36.1035 41.71 36.8444 41.791 37.5389 41.9531C38.2412 42.1074 38.9281 42.3351 39.5995 42.6361L38.7429 44.685C38.1641 44.4303 37.5814 44.222 36.9949 44.0599C36.4161 43.8901 35.8257 43.8052 35.2237 43.8052C34.5214 43.8052 33.9851 43.9133 33.6146 44.1294C33.2519 44.3455 33.0706 44.6542 33.0706 45.0555C33.0706 45.3564 33.1593 45.6111 33.3368 45.8195C33.5143 46.0279 33.8192 46.2362 34.2513 46.4446C34.6912 46.653 35.3009 46.9115 36.0804 47.2202C36.8444 47.5135 37.5042 47.8221 38.0599 48.1463C38.6232 48.4627 39.0554 48.8524 39.3564 49.3155C39.6574 49.7785 39.8079 50.3766 39.8079 51.1098Z" fill="white"/>
<path d="M23.7517 41.7109C25.1948 41.7109 26.3177 42.0852 27.1203 42.8338C27.9307 43.5747 28.3358 44.767 28.3358 46.4108V54.7688H25.6154V46.9202C25.6154 45.9246 25.4109 45.1799 25.0019 44.686C24.5929 44.1844 23.9601 43.9336 23.1034 43.9336C21.8609 43.9336 20.9966 44.3156 20.5104 45.0796C20.0319 45.8436 19.7927 46.9511 19.7927 48.4019V54.7688H17.0723V41.954H19.1907L19.5727 43.6905H19.7232C20.001 43.2428 20.3444 42.8763 20.7535 42.5907C21.1702 42.2975 21.6333 42.0775 22.1426 41.9309C22.6597 41.7843 23.196 41.7109 23.7517 41.7109Z" fill="white"/>
<path d="M13.0579 54.7686L11.3572 49.9403H4.70939L3.00878 54.7686H0L6.46947 37.3105H9.63285L16.0904 54.7686H13.0579ZM10.6199 47.4904L8.96687 42.7335C8.90345 42.5273 8.81227 42.238 8.69335 41.8653C8.57442 41.4848 8.4555 41.1003 8.33658 40.7118C8.21765 40.3154 8.11855 39.9824 8.03927 39.7128C7.95998 40.0379 7.86088 40.4026 7.74196 40.8069C7.63096 41.2033 7.51996 41.576 7.40897 41.9248C7.3059 42.2736 7.22662 42.5432 7.17112 42.7335L5.50618 47.4904H10.6199Z" fill="white"/>
<defs>
<linearGradient id="paint0_linear_1326_1410" x1="14.8904" y1="25.5821" x2="14.8904" y2="47.611" gradientUnits="userSpaceOnUse">
<stop stop-color="white"/>
<stop offset="1" stop-color="white" stop-opacity="0.83"/>
</linearGradient>
</defs>
</svg>
