<svg width="16" height="16" viewBox="0 0 16 16" fill="none" xmlns="http://www.w3.org/2000/svg">
<path d="M4.99968 10.9997L9.66634 9.66634L10.9997 4.99967L6.33301 6.33301L4.99968 10.9997ZM7.99968 8.99967C7.7219 8.99967 7.4859 8.90256 7.29168 8.70834C7.09745 8.51412 7.00012 8.2779 6.99968 7.99967C6.99923 7.72145 7.09656 7.48545 7.29168 7.29167C7.48679 7.0979 7.72279 7.00056 7.99968 6.99967C8.27656 6.99879 8.51279 7.09612 8.70834 7.29167C8.9039 7.48723 9.00101 7.72323 8.99968 7.99967C8.99834 8.27612 8.90123 8.51234 8.70834 8.70834C8.51545 8.90434 8.27923 9.00145 7.99968 8.99967ZM7.99968 14.6663C7.07745 14.6663 6.21079 14.4912 5.39968 14.141C4.58856 13.7908 3.88301 13.3159 3.28301 12.7163C2.68301 12.1168 2.20812 11.4112 1.85834 10.5997C1.50856 9.78812 1.33345 8.92145 1.33301 7.99967C1.33256 7.0779 1.50768 6.21123 1.85834 5.39967C2.20901 4.58812 2.6839 3.88256 3.28301 3.28301C3.88212 2.68345 4.58768 2.20856 5.39968 1.85834C6.21168 1.50812 7.07834 1.33301 7.99968 1.33301C8.92101 1.33301 9.78767 1.50812 10.5997 1.85834C11.4117 2.20856 12.1172 2.68345 12.7163 3.28301C13.3155 3.88256 13.7906 4.58812 14.1417 5.39967C14.4928 6.21123 14.6677 7.0779 14.6663 7.99967C14.665 8.92145 14.4899 9.78812 14.141 10.5997C13.7921 11.4112 13.3172 12.1168 12.7163 12.7163C12.1155 13.3159 11.4099 13.791 10.5997 14.1417C9.78945 14.4923 8.92279 14.6672 7.99968 14.6663Z" fill="#61A6FB"/>
</svg>
